<svg width="36" height="36" viewBox="0 0 36 36" fill="none" xmlns="http://www.w3.org/2000/svg">
<path d="M16.0968 5.50322C15.6468 5.05329 15.0364 4.80054 14.4 4.80054C13.7637 4.80054 13.1533 5.05329 12.7032 5.50322L1.90325 16.3032C1.45332 16.7533 1.20056 17.3636 1.20056 18C1.20056 18.6364 1.45332 19.2468 1.90325 19.6968L12.7032 30.4968C13.1559 30.934 13.7621 31.1759 14.3914 31.1704C15.0207 31.165 15.6226 30.9126 16.0676 30.4676C16.5126 30.0226 16.765 29.4207 16.7705 28.7914C16.7759 28.1621 16.534 27.5559 16.0968 27.1032L9.60005 20.4H32.4C33.0366 20.4 33.647 20.1472 34.0971 19.6971C34.5472 19.247 34.8 18.6365 34.8 18C34.8 17.3635 34.5472 16.7531 34.0971 16.303C33.647 15.8529 33.0366 15.6 32.4 15.6H9.60005L16.0968 8.89682C16.5468 8.44676 16.7995 7.83642 16.7995 7.20002C16.7995 6.56363 16.5468 5.95329 16.0968 5.50322Z" fill="white"/>
</svg>
