<svg width="38" height="33" viewBox="0 0 38 33" fill="none" xmlns="http://www.w3.org/2000/svg">
<path d="M35.3335 0H2.66683C2.04799 0 1.4545 0.245833 1.01691 0.683417C0.579329 1.121 0.333496 1.71449 0.333496 2.33333V30.3333C0.333496 30.9522 0.579329 31.5457 1.01691 31.9832C1.4545 32.4208 2.04799 32.6667 2.66683 32.6667H35.3335C35.9523 32.6667 36.5458 32.4208 36.9834 31.9832C37.421 31.5457 37.6668 30.9522 37.6668 30.3333V2.33333C37.6668 1.71449 37.421 1.121 36.9834 0.683417C36.5458 0.245833 35.9523 0 35.3335 0ZM8.40683 4.66667C9.09906 4.66667 9.77575 4.87194 10.3513 5.25652C10.9269 5.64111 11.3755 6.18773 11.6404 6.82727C11.9053 7.46682 11.9746 8.17055 11.8396 8.84948C11.7045 9.52842 11.3712 10.1521 10.8817 10.6415C10.3922 11.131 9.76858 11.4644 9.08965 11.5994C8.41071 11.7345 7.70698 11.6652 7.06744 11.4002C6.4279 11.1353 5.88127 10.6867 5.49669 10.1112C5.1121 9.53559 4.90683 8.8589 4.90683 8.16667C4.90683 7.23841 5.27558 6.34817 5.93196 5.69179C6.58833 5.03542 7.47857 4.66667 8.40683 4.66667ZM5.00016 26.8333V22.05L12.0002 14.9567C12.2188 14.7394 12.5144 14.6174 12.8227 14.6174C13.1309 14.6174 13.4266 14.7394 13.6452 14.9567L16.6668 17.9083L7.70683 26.8333H5.00016ZM33.0002 26.8333H11.0085L18.2768 19.565L24.5768 13.265C24.7954 13.0477 25.0911 12.9257 25.3993 12.9257C25.7075 12.9257 26.0032 13.0477 26.2218 13.265L33.0002 20.0433V26.8333Z" fill="white"/>
</svg>
