<svg width="32" height="32" viewBox="0 0 32 32" fill="none" xmlns="http://www.w3.org/2000/svg">
<path d="M15.75 4.81525L3.5 14.6152V28.3335H12.25V21.3335H19.25V28.3335H28V15.457C28.0001 15.1946 27.9412 14.9354 27.8276 14.6989C27.714 14.4623 27.5486 14.2543 27.3438 14.0902L15.75 4.81525ZM15.75 0.333496L29.5295 11.3585C30.144 11.85 30.6401 12.4734 30.9812 13.1825C31.3222 13.8916 31.4996 14.6684 31.5 15.4552V28.3335C31.5 29.2618 31.1313 30.152 30.4749 30.8084C29.8185 31.4647 28.9283 31.8335 28 31.8335H3.5C2.57174 31.8335 1.6815 31.4647 1.02513 30.8084C0.368749 30.152 0 29.2618 0 28.3335V14.6152C6.54459e-05 14.0907 0.118053 13.5728 0.345237 13.0999C0.572421 12.6271 0.902991 12.2114 1.3125 11.8835L15.75 0.333496Z" fill="white"/>
</svg>
