<svg width="28" height="28" viewBox="0 0 28 28" fill="none" xmlns="http://www.w3.org/2000/svg">
<g clip-path="url(#clip0_21_1678)">
<path d="M14 0C17.713 0 21.274 1.475 23.8995 4.10051C26.525 6.72601 28 10.287 28 14C28 17.713 26.525 21.274 23.8995 23.8995C21.274 26.525 17.713 28 14 28C10.287 28 6.72601 26.525 4.10051 23.8995C1.475 21.274 0 17.713 0 14C0 10.287 1.475 6.72601 4.10051 4.10051C6.72601 1.475 10.287 0 14 0ZM2.625 14C2.625 17.0168 3.82343 19.9101 5.95666 22.0433C8.08989 24.1766 10.9832 25.375 14 25.375C17.0168 25.375 19.9101 24.1766 22.0433 22.0433C24.1766 19.9101 25.375 17.0168 25.375 14C25.375 10.9832 24.1766 8.08989 22.0433 5.95666C19.9101 3.82343 17.0168 2.625 14 2.625C10.9832 2.625 8.08989 3.82343 5.95666 5.95666C3.82343 8.08989 2.625 10.9832 2.625 14ZM14.875 8.3125V13.5485L18.424 14.9695C18.7367 15.1058 18.9841 15.3586 19.1137 15.6742C19.2433 15.9898 19.2448 16.3435 19.1181 16.6603C18.9913 16.977 18.7462 17.232 18.4347 17.3711C18.1232 17.5102 17.7697 17.5225 17.4492 17.4055L13.0743 15.6555C12.8311 15.5578 12.6227 15.3896 12.4758 15.1726C12.3289 14.9556 12.2503 14.6996 12.25 14.4375V8.3125C12.25 7.9644 12.3883 7.63056 12.6344 7.38442C12.8806 7.13828 13.2144 7 13.5625 7C13.9106 7 14.2444 7.13828 14.4906 7.38442C14.7367 7.63056 14.875 7.9644 14.875 8.3125Z" fill="white"/>
</g>
<defs>
<clipPath id="clip0_21_1678">
<rect width="28" height="28" fill="white"/>
</clipPath>
</defs>
</svg>
